<svg xmlns="http://www.w3.org/2000/svg" viewBox="0 0 197.8 69.42"><defs><style>.cls-1{fill:#AE55FB;}</style></defs><title>Asset 32cliplogo</title><g id="Layer_2" data-name="Layer 2"><g id="Layer_1-2" data-name="Layer 1"><path class="cls-1" d="M33.49,56.22c-7.28-.28-15.6-.61-23.42-4C3.66,49.46.09,44.75,0,37.6-.09,30,2.92,24.33,10.1,21.43,20.2,17.36,30.82,17,41.51,17.72c5.8.37,11.58,1,16.88,3.74C62.76,23.67,66,26.79,66.68,32c.3,2.11-.2,3.14-2.5,3.09-3.67-.08-7.33-.07-11,0a3.69,3.69,0,0,1-3.36-1.76c-2.82-4.23-7.12-5-11.72-5.1s-9-.19-13.41.92c-4.27,1.07-6.37,4-6.75,8.1-.41,4.33,2.51,6.51,6.24,7C33.45,45.57,43,48.1,50.9,40.14c.83-.83,14.26-1.16,15.2-.51,1.23.84.8,2,.55,3.12-1.12,4.77-4.35,7.71-8.66,9.64C50.51,55.73,42.56,56.17,33.49,56.22Z"/><path class="cls-1" d="M73.9,29.28c0-7.15.12-14.3-.05-21.45C73.78,5,74.74,4,77.55,4.17a92.29,92.29,0,0,0,10,0c2.69-.13,3.87.68,3.85,3.6q-.16,21.69,0,43.38c0,3-1,3.93-4,4-13.43.37-13.43.46-13.43-12.92Z"/><path class="cls-1" d="M100,36.28c0-4.82.11-9.63,0-14.44-.08-2.6.9-3.34,3.46-3.47,14.43-.75,14.42-.81,14.43,13.39,0,6.64-.09,13.28,0,19.92,0,2.59-.91,3.34-3.47,3.47C100,55.93,100,56,100,41.75Z"/><path class="cls-1" d="M109.29.18h1.49c7.74,0,8.06.47,7.28,8-.25,2.35-1.4,2.65-3.23,2.64a90,90,0,0,0-9.44.07c-4.22.42-5.68-.83-5.67-5.38s1.29-6,5.6-5.35A26.27,26.27,0,0,0,109.29.18Z"/><path class="cls-1" d="M190.65,23c-12.18-7.26-35.34-8.77-47.47,4.84-2.68-2.59.9-7.73-2.84-9.09-3.24-1.19-7.25-.12-10.89-.41-3.41-.28-4.27,1.15-4.24,4.3.13,11.15.05,22.3.05,33.45,0,13.54,0,13.41,13.66,13.27,3.41,0,4.19-1.2,4.09-4.32-.21-6.26-.06-12.53-.06-20.18,4,4.93,7.76,7.68,12.31,9,12.11,3.6,24,3.33,35.23-3,5-2.84,7.36-7.78,7.31-13.38C197.74,31.71,196.12,26.28,190.65,23ZM174.62,43c-9.36,3.49-18.86,2.87-28.15-.58A5,5,0,0,1,143,36.93c.31-3.92,3.48-5.5,6.35-6.72,4-1.69,8.44-1.58,13.14-1.78,4.78.5,10.24-.27,14.2,4.47C179.89,36.76,179.37,41.2,174.62,43Z"/></g></g></svg>