<svg xmlns="http://www.w3.org/2000/svg" xmlns:xlink="http://www.w3.org/1999/xlink" viewBox="0 0 7999.69 4999.81">
<defs>
<style>.cls-1{fill:url(#linear-gradient);}.cls-2{fill:url(#linear-gradient-2);}.cls-3{fill:url(#linear-gradient-3);}.cls-4{fill:url(#linear-gradient-4);}.cls-5{fill:url(#linear-gradient-5);}.cls-6{fill:url(#linear-gradient-6);}.cls-7{fill:url(#linear-gradient-7);}.cls-8{fill:url(#linear-gradient-8);}.cls-9{fill:url(#linear-gradient-9);}.cls-10{fill:url(#linear-gradient-10);}.cls-11{mask:url(#mask);}.cls-12{fill:#1db954;fill-rule:evenodd;}.cls-13{mask:url(#mask-2);}.cls-14{mask:url(#mask-3);}.cls-15{mask:url(#mask-4);}.cls-16{mask:url(#mask-5);}.cls-17{mask:url(#mask-6);}.cls-18{mask:url(#mask-7);}.cls-19{mask:url(#mask-8);}.cls-20{mask:url(#mask-9);}.cls-21{mask:url(#mask-10);}
</style>
<linearGradient id="linear-gradient" x1="-54.17" y1="-222.3" x2="1201" y2="1694.19" gradientTransform="translate(0 -245.23)" gradientUnits="userSpaceOnUse"><stop offset="0" stop-color="#fff"/><stop offset="1"/>
</linearGradient><linearGradient id="linear-gradient-2" x1="-392.58" y1="814.32" x2="1388.94" y2="3162.69" gradientTransform="translate(0 -135.23)" xlink:href="#linear-gradient"/>
<linearGradient id="linear-gradient-3" x1="822.76" y1="-593.28" x2="2887.71" y2="1971.03" gradientTransform="translate(98.95 -254.23)" xlink:href="#linear-gradient"/>
<linearGradient id="linear-gradient-4" x1="174.35" y1="2833.25" x2="2149.81" y2="4606.81" gradientTransform="matrix(1, 0, 0, 1, 0, 0)" xlink:href="#linear-gradient"/><linearGradient id="linear-gradient-5" x1="7580.51" y1="5467.36" x2="6325.34" y2="3550.87" gradientTransform="translate(473.36)" xlink:href="#linear-gradient"/><linearGradient id="linear-gradient-6" x1="7919.98" y1="4421.56" x2="6138.46" y2="2073.19" gradientTransform="translate(472.36 -100.75)" xlink:href="#linear-gradient"/><linearGradient id="linear-gradient-7" x1="6717.64" y1="5847.34" x2="4652.69" y2="3283.03" gradientTransform="translate(360.36)" xlink:href="#linear-gradient"/><linearGradient id="linear-gradient-8" x1="7414.91" y1="2356.48" x2="5439.57" y2="582.92" gradientTransform="translate(410.36 -189.93)" xlink:href="#linear-gradient"/><linearGradient id="linear-gradient-9" x1="4315.11" y1="1220.92" x2="3046.45" y2="4976.42" gradientTransform="translate(150.4)" xlink:href="#linear-gradient"/><linearGradient id="linear-gradient-10" x1="3318.58" y1="3986.62" x2="4587.24" y2="231.11" gradientTransform="translate(215.6 -207.72)" xlink:href="#linear-gradient"/><mask id="mask" x="0" y="0" width="1610.97" height="1690.13" maskUnits="userSpaceOnUse"><rect class="cls-1" width="1610.97" height="1690.13"/></mask><mask id="mask-2" x="0" y="1359.79" width="1624.46" height="1814.94" maskUnits="userSpaceOnUse"><rect class="cls-2" y="1359.79" width="1624.46" height="1814.94"/></mask><mask id="mask-3" x="1335.47" y="0" width="1800.6" height="1568.65" maskUnits="userSpaceOnUse"><rect class="cls-3" x="1335.47" width="1800.6" height="1568.65"/></mask><mask id="mask-4" x="0" y="2563.32" width="2461.25" height="2436.49" maskUnits="userSpaceOnUse"><rect class="cls-4" y="2563.32" width="2461.25" height="2436.49"/></mask><mask id="mask-5" x="6388.72" y="3309.68" width="1610.97" height="1690.13" maskUnits="userSpaceOnUse"><rect class="cls-5" x="6388.72" y="3309.68" width="1610.97" height="1690.13"/></mask><mask id="mask-6" x="6375.23" y="1825.08" width="1624.46" height="1814.94" maskUnits="userSpaceOnUse"><rect class="cls-6" x="6375.23" y="1825.08" width="1624.46" height="1814.94"/></mask><mask id="mask-7" x="4863.63" y="3431.16" width="1800.6" height="1568.65" maskUnits="userSpaceOnUse"><rect class="cls-7" x="4863.63" y="3431.16" width="1800.6" height="1568.65"/></mask><mask id="mask-8" x="5538.45" y="0" width="2461.25" height="2436.49" maskUnits="userSpaceOnUse"><rect class="cls-8" x="5538.45" width="2461.25" height="2436.49"/></mask><mask id="mask-9" x="2029.92" y="2803.52" width="3060.01" height="2196.29" maskUnits="userSpaceOnUse"><rect class="cls-9" x="2029.92" y="2803.52" width="3060.01" height="2196.29"/></mask><mask id="mask-10" x="2909.77" y="0" width="3060.01" height="2196.29" maskUnits="userSpaceOnUse"><rect class="cls-10" x="2909.77" width="3060.01" height="2196.29"/></mask></defs><title>Asset 2bgclouds</title><g id="Layer_2" data-name="Layer 2"><g id="Layer_1-2" data-name="Layer 1"><g class="cls-11"><path class="cls-12" d="M1374.46,0H0V1513c165,111.84,364.13,177.17,578.5,177.17,570.22,0,1032.47-462.26,1032.47-1032.48,0-249.89-88.77-479-236.51-657.65"/></g><g class="cls-13"><path class="cls-12" d="M1335.47,1359.79c-188.55,203.19-457.92,330.34-757,330.34C364.13,1690.13,165,1624.8,0,1513V3027.44c159.91,93.62,346.07,147.29,544.75,147.29,596.31,0,1079.71-483.4,1079.71-1079.71,0-284-109.68-542.46-289-735.23"/></g><g class="cls-14"><path class="cls-12" d="M3076.27,0H1374.46C1522.2,178.6,1611,407.76,1611,657.65c0,271.17-104.53,517.91-275.5,702.14q36.19,38.93,68.51,81.3c161.6,81.6,344.26,127.56,537.66,127.56,659.66,0,1194.43-534.76,1194.43-1194.43A1193.34,1193.34,0,0,0,3076.27,0"/></g><g class="cls-15"><path class="cls-12" d="M2461.25,3950.77c0-630.17-390.85-1169.05-943.35-1387.45-174.42,361.78-544.63,611.41-973.15,611.41-198.68,0-384.84-53.67-544.75-147.29V4999.81H2029.92c266.66-269.44,431.33-640,431.33-1049"/></g><g class="cls-16"><path class="cls-12" d="M6625.23,4999.81H7999.69v-1513c-165-111.83-364.13-177.16-578.49-177.16-570.22,0-1032.48,462.26-1032.48,1032.48,0,249.89,88.78,479.05,236.51,657.65"/></g><g class="cls-17"><path class="cls-12" d="M6664.23,3640c188.55-203.18,457.91-330.33,757-330.33,214.36,0,413.47,65.33,578.49,177.16V1972.37c-159.91-93.63-346.06-147.29-544.75-147.29-596.31,0-1079.71,483.4-1079.71,1079.71,0,284,109.68,542.46,289,735.22"/></g><g class="cls-18"><path class="cls-12" d="M4923.42,4999.81H6625.23c-147.73-178.6-236.51-407.76-236.51-657.65,0-271.17,104.54-517.91,275.51-702.15q-36.21-38.91-68.52-81.29c-161.6-81.6-344.26-127.56-537.65-127.56-659.67,0-1194.43,534.76-1194.43,1194.43a1193.33,1193.33,0,0,0,59.79,374.22"/></g><g class="cls-19"><path class="cls-12" d="M5538.45,1049c0,630.16,390.85,1169,943.35,1387.44,174.41-361.77,544.62-611.4,973.14-611.4,198.69,0,384.84,53.66,544.75,147.29V0H5969.78c-266.66,269.44-431.33,640-431.33,1049"/></g><g class="cls-20"><path class="cls-12" d="M5089.92,3925.88c-245.77-655.67-878.25-1122.36-1619.74-1122.36-454,0-867.21,175-1175.75,461.22,106.59,205.37,166.82,438.67,166.82,686,0,409-164.67,779.6-431.33,1049h2893.5a1193.33,1193.33,0,0,1-59.79-374.22c0-261.34,83.92-503.07,226.29-699.71"/></g><g class="cls-21"><path class="cls-12" d="M2909.77,1073.93C3155.54,1729.6,3788,2196.29,4529.51,2196.29c454,0,867.21-175,1175.75-461.22-106.59-205.37-166.81-438.67-166.81-686,0-409,164.67-779.6,431.33-1049H3076.27a1193.34,1193.34,0,0,1,59.8,374.22c0,261.33-83.93,503.06-226.3,699.71"/></g></g></g></svg>