<svg width="75" height="37" viewBox="0 0 75 37" fill="none" xmlns="http://www.w3.org/2000/svg">
<path d="M2.16814 15.4395C5.59471 13.8561 9.54437 13.9757 13.2782 14.3487C13.3026 14.3506 13.3271 14.3474 13.3502 14.3393C13.3733 14.3312 13.3945 14.3184 13.4125 14.3017C13.4304 14.2851 13.4447 14.2649 13.4544 14.2424C13.4642 14.2199 13.4691 14.1957 13.469 14.1712C13.4681 14.099 13.4441 14.0291 13.4003 13.9716C13.3566 13.9142 13.2956 13.8724 13.2262 13.8524C10.3003 12.9931 7.23031 12.7376 4.20263 13.1013C17.6005 4.8069 37.0979 -1.73362 50.7803 9.2048C46.584 11.066 42.4627 13.6963 40.1464 17.8125C38.7257 20.1556 38.0507 22.8752 38.211 25.6107C38.5704 32.291 44.9637 37.5619 51.4272 35.8419C63.1568 32.7204 63.2786 17.1127 55.2827 8.74469C61.2998 6.39087 67.6392 4.83054 74.0139 3.77578C74.0485 3.77057 74.0796 3.752 74.1007 3.72407C74.1217 3.69614 74.131 3.66107 74.1264 3.62639C74.1233 3.59812 74.1145 3.57075 74.1008 3.54585C74.087 3.52095 74.0685 3.49901 74.0462 3.48127C74.024 3.46354 73.9985 3.45037 73.9711 3.4425C73.9438 3.43464 73.9152 3.43224 73.8869 3.43544C67.2552 4.18949 60.6803 5.52919 54.3723 7.7583C40.5699 -5.93297 17.7854 0.486866 4.69319 11.6751C6.7029 9.95635 6.93941 5.88238 6.36855 3.9299C6.35526 3.86541 6.31738 3.80862 6.26295 3.77158C6.20851 3.73453 6.1418 3.72013 6.07693 3.73143C6.01862 3.74636 5.96548 3.77689 5.92319 3.81972C5.88089 3.86256 5.85106 3.91609 5.83688 3.97459C4.96095 7.56656 3.27878 10.4899 0.698437 13.7899C-0.359835 15.1441 -0.465143 16.6554 2.16814 15.4395ZM54.4016 13.1535C59.5355 19.7395 58.337 31.9875 50.385 33.4649C45.7769 34.3229 41.3064 31.174 40.4846 26.5586C40.0122 23.8757 40.4852 21.1121 41.823 18.7391C43.9497 14.7428 47.9146 12.152 51.9118 10.2154C52.8334 11.1133 53.6671 12.0971 54.4016 13.1535Z" fill="#1db954"/>
</svg>
