<svg width="95" height="66" viewBox="0 0 95 66" fill="none" xmlns="http://www.w3.org/2000/svg">
<path d="M94.669 51.0524C89.7843 53.138 85.4604 53.2935 80.3063 52.0494C79.5093 52.1799 80.5479 52.8825 80.8062 53.1019C83.1694 54.9708 87.0184 55.018 90.0564 54.8597C82.6945 59.1363 73.3193 62.7992 64.7856 61.855C54.8772 60.958 44.6272 53.8767 43.6136 43.449C49.7508 41.269 55.9685 37.4784 59.1288 31.5717C62.4778 23.5877 54.2135 19.55 47.5153 24.3903C42.0834 28.317 39.2426 35.0679 39.026 41.6994C13.283 46.8897 -3.49573 24.5319 1.89169 0.285793C1.89949 0.256223 1.90117 0.225373 1.89665 0.195128C1.89212 0.164884 1.88148 0.135878 1.86536 0.109887C1.84925 0.0838955 1.828 0.0614631 1.80293 0.0439605C1.77785 0.0264579 1.74947 0.0142528 1.71951 0.00809099C1.6907 0.000146579 1.66059 -0.00197514 1.63095 0.00184826C1.6013 0.00567166 1.57272 0.015364 1.54687 0.0303595C1.52101 0.0453551 1.49841 0.0653525 1.48037 0.0891841C1.46233 0.113016 1.44922 0.140204 1.44181 0.169158C-5.30356 25.34 12.3472 49.0197 39.1898 44.582C40.0646 52.3049 45.5575 58.9086 52.3917 62.2632C64.5634 68.4254 80.534 64.2321 90.7868 56.0066C90.5257 57.3951 89.7454 58.6392 89.4788 60.0222C89.1678 61.6412 89.7815 64.6043 90.5174 63.6879C90.844 62.1435 91.2887 60.6265 91.8476 59.1502C92.3863 57.6478 93.0417 55.9678 93.6499 54.4932L93.772 54.2155L94.9773 51.3885C94.9977 51.3442 95.0046 51.2949 94.997 51.2468C94.9895 51.1986 94.9679 51.1538 94.935 51.1179C94.902 51.082 94.8592 51.0566 94.8119 51.0449C94.7646 51.0333 94.7149 51.0359 94.669 51.0524ZM46.5406 31.4495C50.6811 23.4933 60.1479 24.8235 54.6994 32.3131C51.71 35.8451 47.8942 38.5838 43.5914 40.2859C43.8832 37.1531 44.8923 34.1296 46.5406 31.4495Z" fill="#1db954"/>
</svg>
